<svg width="664" height="665" viewBox="0 0 664 665" fill="none" xmlns="http://www.w3.org/2000/svg">
<g clip-path="url(#clip0_503_300)">
<path opacity="0.2" d="M663.459 504.085V333.877H663.999V331.997H663.459V161.791C663.449 120.049 647.205 79.9469 618.163 49.9653V46.877H663.459V44.9853H619.475L661.709 2.52029L660.422 1.23347L618.201 43.6985V2.14711H616.323V44.9853H613.131C583.581 16.7378 544.283 0.962395 503.404 0.9375H160.042C119.18 0.975628 79.9032 16.75 50.3661 44.9853H47.162V2.14711H45.2961V43.6599L3.0755 1.19486L1.78868 2.48168L44.0092 44.9467H2.67659V46.8255H45.2961V49.9653C16.25 79.9446 0.00579511 120.048 0 161.791V504.085C0.00579511 545.827 16.25 585.93 45.2961 615.909V619.049H2.67659V620.927H43.9706L1.75008 663.393L3.0369 664.68L45.2575 622.215V663.728H47.1234V620.888H50.3275C79.8742 649.133 119.167 664.909 160.042 664.937H503.404C544.27 664.902 583.552 649.127 613.093 620.888H616.284V663.728H618.163V622.215L660.383 664.68L661.67 663.393L619.437 620.927H663.999V619.049H618.163V615.909C647.198 585.923 663.441 545.825 663.459 504.085ZM661.58 504.085C661.577 544.662 646.041 583.698 618.163 613.181V451.904H660.911V450.038H618.163V333.877H661.58V504.085ZM449.525 450.038L448.238 448.751C450.374 446.581 452.446 444.35 454.453 442.06V450.038H449.525ZM454.453 451.917V454.993L451.391 451.917H454.453ZM210.073 450.038V443.282C211.746 445.148 213.471 446.963 215.221 448.751L213.934 450.038H210.073ZM212.068 451.917L210.073 453.898V451.904L212.068 451.917ZM213.934 215.837L215.221 217.124C213.471 218.912 211.746 220.74 210.073 222.593V215.837H213.934ZM210.073 213.958V211.977L212.068 213.971L210.073 213.958ZM454.453 215.837V223.815C452.446 221.525 450.374 219.294 448.238 217.124L449.525 215.837H454.453ZM451.391 213.958L454.453 210.883V213.958H451.391ZM454.453 331.984H450.052C449.857 301.111 437.666 271.524 416.055 249.474L446.938 218.462C449.512 221.096 452.026 223.828 454.479 226.659L454.453 331.984ZM456.319 228.885C480.321 257.894 493.511 294.333 493.637 331.984H456.319V228.885ZM414.729 250.761C436.001 272.447 448 301.558 448.187 331.934H333.981L414.729 250.761ZM332.669 330.544V215.837C362.941 216.048 391.925 228.115 413.404 249.449L332.669 330.544ZM330.79 330.544L250.042 249.359C271.545 228.064 300.528 216.032 330.79 215.837V330.544ZM329.503 331.831H215.272C215.466 301.456 227.464 272.348 248.729 250.658L329.503 331.831ZM329.503 333.71L248.755 414.882C227.49 393.193 215.492 364.084 215.298 333.71H329.503ZM330.79 334.997V450.038C300.512 449.826 271.523 437.754 250.042 416.414L330.79 334.997ZM332.669 334.997L413.404 416.169C391.969 437.601 362.979 449.763 332.669 450.038V334.997ZM333.956 333.71H448.148C447.961 364.086 435.962 393.197 414.691 414.882L333.956 333.71ZM445.587 217.124L414.704 248.149C397.752 231.332 376.09 220.063 352.589 215.837H444.275L445.587 217.124ZM332.669 213.958V170.116C373.451 170.316 412.636 185.99 442.306 213.971L332.669 213.958ZM330.79 213.958H221.153C250.817 185.969 290.006 170.294 330.79 170.103V213.958ZM310.857 215.837C287.349 220.064 265.678 231.332 248.717 248.149L217.833 217.124L219.12 215.837H310.857ZM216.546 218.411L247.43 249.423C225.809 271.466 213.615 301.058 213.432 331.934H210.099V225.437C212.171 223.056 214.32 220.727 216.546 218.475V218.411ZM208.208 331.934H169.77C169.914 293.706 183.523 256.751 208.208 227.56V331.934ZM208.208 333.812V438.187C183.523 408.996 169.914 372.041 169.77 333.812H208.208ZM210.073 333.812H213.406C213.587 364.684 225.781 394.274 247.404 416.311L216.52 447.336C214.294 445.084 212.145 442.755 210.086 440.374L210.073 333.812ZM217.872 448.751L248.755 417.726C265.707 434.537 287.362 445.804 310.857 450.038H219.184L217.872 448.751ZM330.79 451.917V495.772C290.006 495.581 250.817 479.906 221.153 451.917H330.79ZM332.669 451.917H442.306C412.636 479.898 373.451 495.572 332.669 495.772V451.917ZM352.589 450.038C376.099 445.817 397.771 434.548 414.729 417.726L445.613 448.751L444.326 450.038H352.589ZM446.913 447.465L416.029 416.439C437.643 394.397 449.835 364.812 450.027 333.941H454.428V439.268C452.026 442.047 449.521 444.779 446.913 447.465ZM456.319 333.941H493.637C493.511 371.592 480.321 408.031 456.319 437.04V333.941ZM495.554 332.062C495.411 293.201 481.511 255.645 456.319 226.054V215.837H555.276C573.903 251.725 583.668 291.55 583.753 331.984L495.554 332.062ZM456.319 214.035V209.068L510.597 154.52C527.98 172.126 542.698 192.176 554.285 214.035H456.319ZM456.319 206.417V112.66C475.677 123.752 493.482 137.355 509.272 153.117L456.319 206.417ZM454.453 208.296L448.753 214.035H445.034C414.881 184.857 374.627 168.446 332.669 168.225V79.5879C375.332 79.6816 417.26 90.7041 454.453 111.605V208.296ZM330.79 168.225C288.842 168.423 248.589 184.806 218.425 213.958H214.706L210.073 209.3V110.987C247.008 90.4745 288.542 79.6671 330.79 79.5751V168.225ZM208.208 207.434L154.161 153.117C170.252 137.067 188.431 123.255 208.208 112.055V207.434ZM208.208 210.098V213.958H109.122C120.705 192.096 135.424 172.045 152.81 154.443L208.208 210.098ZM208.208 215.85V224.729C182.35 254.5 168.043 292.565 167.891 331.997H79.7056C79.789 291.559 89.5537 251.729 108.183 215.837L208.208 215.85ZM167.891 333.877C168.043 373.309 182.35 411.376 208.208 441.146V450.038H108.183C89.5557 414.15 79.7911 374.324 79.7056 333.89L167.891 333.877ZM208.208 451.904V455.765L152.874 511.394C135.488 493.791 120.77 473.741 109.187 451.878L208.208 451.904ZM208.208 458.441V553.82C188.431 542.62 170.252 528.808 154.161 512.758L208.208 458.441ZM210.073 456.562L214.706 451.904H218.425C248.587 481.061 288.84 497.449 330.79 497.651V586.312C288.542 586.209 247.009 575.398 210.073 554.888V456.562ZM332.669 497.651C374.617 497.45 414.869 481.067 445.034 451.917H448.753L454.453 457.656V554.271C417.259 575.169 375.332 586.194 332.669 586.299V497.651ZM456.319 459.535L509.272 512.771C493.476 528.526 475.672 542.129 456.319 553.228V459.535ZM456.319 456.884V451.917H554.285C542.698 473.777 527.98 493.827 510.597 511.432L456.319 456.884ZM456.319 450.038V439.898C481.511 410.307 495.411 372.752 495.554 333.89H583.753C583.668 374.324 573.903 414.15 555.276 450.038H456.319ZM585.619 333.89H616.284V450.038H557.386C575.862 414.1 585.539 374.287 585.619 333.877V333.89ZM585.619 332.01C585.541 291.596 575.864 251.78 557.386 215.837H616.284V331.984L585.619 332.01ZM556.395 213.984C544.651 191.619 529.664 171.113 511.923 153.13L615.1 49.4506L615.19 49.5278C615.576 49.9267 615.962 50.3514 616.348 50.8146V213.971L556.395 213.984ZM613.685 48.1509L510.597 151.792C494.435 135.66 476.179 121.771 456.319 110.498V46.8641H612.346L613.685 48.1509ZM454.453 109.456C417.202 88.7292 375.298 77.8016 332.669 77.6963V46.8126H454.453V109.456ZM332.669 44.9853V2.81625H454.453V44.9853H332.669ZM330.79 44.9853H210.073V2.81625H330.79V44.9853ZM330.79 46.8641V77.7478C288.576 77.8466 247.064 88.5598 210.073 108.902V46.8641H330.79ZM208.208 109.919C187.938 121.29 169.32 135.383 152.874 151.805L49.7871 48.1638L51.0739 46.877H208.208V109.919ZM48.333 49.5278L48.4102 49.4506L151.536 153.117C133.787 171.096 118.796 191.603 107.051 213.971H47.162V50.7632C47.6124 50.3514 47.9341 49.9267 48.333 49.5278ZM106.073 215.837C87.5987 251.772 77.9223 291.579 77.8398 331.984H47.162V215.837H106.073ZM77.8398 333.864C77.9183 374.278 87.5948 414.096 106.073 450.038H47.162V333.877L77.8398 333.864ZM107.051 451.891C118.796 474.259 133.787 494.766 151.536 512.745L48.4102 616.424L48.333 616.346C47.9341 615.947 47.5609 615.523 47.162 615.06V451.904L107.051 451.891ZM49.7742 617.724L152.861 514.083C169.311 530.506 187.927 544.602 208.195 555.982V619.036H51.1125L49.7742 617.724ZM210.073 557.025C247.064 577.366 288.576 588.079 330.79 588.177V619.062H210.073V557.025ZM330.79 620.888V663.057H210.073V620.888H330.79ZM332.669 620.888H454.453V663.057H332.669V620.888ZM332.669 619.01V588.127C375.298 588.022 417.202 577.093 454.453 556.367V618.958L332.669 619.01ZM456.319 555.377C476.179 544.104 494.435 530.216 510.597 514.083L613.685 617.724L612.398 619.01H456.319V555.377ZM615.1 616.346L615.01 616.424L511.897 512.758C529.639 494.775 544.625 474.269 556.37 451.904H616.258V615.112L615.1 616.346ZM661.58 161.791V331.997H618.163V215.837H660.911V213.958H618.163V52.732C646.032 82.2056 661.567 121.227 661.58 161.791ZM610.39 44.9467H456.319V2.81625H503.404C543.114 2.84558 581.34 17.9124 610.39 44.9853V44.9467ZM160.003 2.77765H208.208V44.9467H53.0685C82.1211 17.8897 120.341 2.83706 160.042 2.81625L160.003 2.77765ZM1.86589 504.085V161.791C1.87391 121.212 17.4138 82.1754 45.2961 52.6934V213.932H2.57364V215.837H45.2961V331.984H2.41922V333.864H45.2961V450.038H2.57364V451.917H45.2961V613.156C17.4199 583.68 1.88049 544.654 1.86589 504.085ZM53.0685 620.927H208.208V663.096H160.042C120.331 663.054 82.1092 647.974 53.0685 620.888V620.927ZM503.456 663.096H456.319V620.888H610.39C581.338 647.959 543.114 663.026 503.404 663.057L503.456 663.096Z" fill="url(#paint0_radial_503_300)"/>
<mask id="mask0_503_300" style="mask-type:alpha" maskUnits="userSpaceOnUse" x="-13" y="0" width="592" height="665">
<path d="M578.988 0H-12.7969V664.938H578.988V0Z" fill="url(#paint1_linear_503_300)"/>
</mask>
<g mask="url(#mask0_503_300)">
<path d="M82.8633 584.71C82.8633 579.582 82.8633 577.019 83.8769 575.067C84.7311 573.423 86.0719 572.082 87.7163 571.228C89.6677 570.214 92.2314 570.214 97.3587 570.214H147.147C152.275 570.214 154.838 570.214 156.79 571.228C158.434 572.082 159.775 573.423 160.629 575.067C161.643 577.019 161.643 579.582 161.643 584.71V634.499C161.643 639.626 161.643 642.19 160.629 644.141C159.775 645.785 158.434 647.126 156.79 647.98C154.838 648.994 152.275 648.994 147.147 648.994H97.3587C92.2314 648.994 89.6677 648.994 87.7163 647.98C86.0719 647.126 84.7311 645.785 83.8769 644.141C82.8633 642.19 82.8633 639.626 82.8633 634.499V584.71Z" fill="white" fill-opacity="0.1"/>
<path d="M147.147 569.745H97.3589H97.3366C94.7918 569.745 92.8531 569.745 91.3079 569.874C89.7526 570.003 88.5541 570.264 87.5004 570.812C85.7703 571.711 84.3597 573.121 83.461 574.851C82.9136 575.905 82.652 577.104 82.5228 578.659C82.3945 580.204 82.3945 582.143 82.3945 584.687V584.71V634.499V634.521C82.3945 637.066 82.3945 639.004 82.5228 640.55C82.652 642.105 82.9136 643.303 83.461 644.357C84.3597 646.087 85.7703 647.498 87.5004 648.396C88.5541 648.944 89.7526 649.205 91.3079 649.335C92.853 649.463 94.7916 649.463 97.3363 649.463H97.3589H147.147H147.17C149.715 649.463 151.653 649.463 153.198 649.335C154.754 649.205 155.952 648.944 157.006 648.396C158.736 647.498 160.147 646.087 161.045 644.357C161.593 643.303 161.854 642.105 161.984 640.55C162.112 639.004 162.112 637.066 162.112 634.521V634.499V584.71V584.687C162.112 582.143 162.112 580.204 161.984 578.659C161.854 577.104 161.593 575.905 161.045 574.851C160.147 573.121 158.736 571.711 157.006 570.812C155.952 570.264 154.754 570.003 153.198 569.874C151.653 569.745 149.715 569.745 147.17 569.745H147.147Z" stroke="white" stroke-opacity="0.2" stroke-width="0.937853"/>
<mask id="mask1_503_300" style="mask-type:luminance" maskUnits="userSpaceOnUse" x="95" y="582" width="55" height="55">
<path d="M149.45 582.406H95.0547V636.802H149.45V582.406Z" fill="white"/>
</mask>
<g mask="url(#mask1_503_300)">
<path d="M98.4531 582.406H146.049L141.72 631.278L122.199 636.801L102.787 631.276L98.4531 582.406ZM137.187 592.408L107.315 592.401L107.798 598.344L130.746 598.348L130.168 604.504H115.118L115.662 610.336H129.674L128.844 618.32L122.249 620.143L115.549 618.307L115.123 613.524H109.208L109.865 622.262L122.251 626.122L134.429 622.654L137.187 592.41V592.408Z" fill="white"/>
</g>
<path d="M359.184 66.2422H309.478C301.708 66.2422 295.41 72.5405 295.41 80.31V130.016C295.41 137.786 301.708 144.084 309.478 144.084H359.184C366.954 144.084 373.252 137.786 373.252 130.016V80.31C373.252 72.5405 366.954 66.2422 359.184 66.2422Z" fill="white" fill-opacity="0.1"/>
<path d="M359.184 65.7734H309.478C301.45 65.7734 294.941 72.2817 294.941 80.3102V130.016C294.941 138.045 301.45 144.553 309.478 144.553H359.184C367.213 144.553 373.721 138.045 373.721 130.016V80.3102C373.721 72.2818 367.213 65.7734 359.184 65.7734Z" stroke="white" stroke-opacity="0.2" stroke-width="0.937853"/>
<path d="M347.7 127.056C349.268 129.616 351.308 131.498 354.916 131.498C357.947 131.498 359.883 129.983 359.883 127.89C359.883 125.382 357.894 124.493 354.558 123.034L352.729 122.25C347.451 120.001 343.944 117.184 343.944 111.228C343.944 105.742 348.124 101.566 354.657 101.566C359.307 101.566 362.651 103.185 365.06 107.423L359.364 111.08C358.11 108.831 356.757 107.945 354.657 107.945C352.514 107.945 351.156 109.304 351.156 111.08C351.156 113.274 352.515 114.163 355.654 115.522L357.482 116.305C363.697 118.97 367.206 121.687 367.206 127.796C367.206 134.382 362.033 137.99 355.085 137.99C348.292 137.99 343.903 134.752 341.756 130.509L347.7 127.056ZM321.861 127.69C323.01 129.729 324.055 131.452 326.568 131.452C328.971 131.452 330.487 130.512 330.487 126.856V101.984H337.802V126.955C337.802 134.529 333.361 137.976 326.879 137.976C321.023 137.976 317.631 134.945 315.906 131.295L321.861 127.69Z" fill="white"/>
<path d="M194.809 25.666H146.041C137.753 25.666 131.035 32.3843 131.035 40.6716V89.44C131.035 97.7274 137.753 104.446 146.041 104.446H194.809C203.097 104.446 209.815 97.7274 209.815 89.44V40.6716C209.815 32.3843 203.097 25.666 194.809 25.666Z" fill="white" fill-opacity="0.1"/>
<path d="M194.809 25.1973H146.041C137.495 25.1973 130.566 32.1255 130.566 40.6719V89.4402C130.566 97.9865 137.495 104.915 146.041 104.915H194.809C203.356 104.915 210.284 97.9865 210.284 89.4402V40.6719C210.284 32.1255 203.356 25.1973 194.809 25.1973Z" stroke="white" stroke-opacity="0.2" stroke-width="0.937853"/>
<path d="M480.477 333.679L429.836 333.099C422.067 333.01 415.697 339.235 415.608 347.004L415.028 397.645C414.939 405.414 421.165 411.784 428.934 411.873L479.575 412.453C487.344 412.542 493.714 406.316 493.803 398.547L494.383 347.907C494.472 340.138 488.246 333.768 480.477 333.679Z" fill="white" fill-opacity="0.1"/>
<path d="M480.481 333.21L429.84 332.63C421.813 332.538 415.23 338.972 415.138 347L414.558 397.64C414.466 405.668 420.9 412.251 428.927 412.343L479.568 412.923C487.596 413.015 494.178 406.581 494.27 398.553L494.85 347.913C494.942 339.885 488.509 333.302 480.481 333.21Z" stroke="white" stroke-opacity="0.2" stroke-width="0.937853"/>
<path d="M441.664 367.842C441.655 368.58 441.728 369.181 441.863 369.622C442.018 370.063 442.212 370.544 442.485 371.066C442.583 371.227 442.621 371.387 442.62 371.527C442.618 371.727 442.495 371.925 442.234 372.122L440.966 372.946C440.785 373.063 440.605 373.12 440.445 373.118C440.246 373.116 440.047 373.015 439.85 372.833C439.574 372.53 439.338 372.207 439.142 371.886C438.946 371.544 438.751 371.162 438.537 370.701C436.959 372.519 434.992 373.416 432.636 373.389C430.96 373.37 429.628 372.876 428.66 371.906C427.693 370.937 427.209 369.654 427.227 368.057C427.247 366.36 427.861 364.989 429.091 363.964C430.32 362.94 431.943 362.44 433.999 362.463C434.678 362.471 435.376 362.54 436.113 362.648C436.851 362.757 437.608 362.925 438.404 363.114L438.421 361.657C438.438 360.14 438.131 359.077 437.519 358.451C436.887 357.825 435.813 357.514 434.276 357.497C433.577 357.489 432.858 357.559 432.117 357.73C431.376 357.902 430.655 358.114 429.953 358.385C429.632 358.521 429.392 358.598 429.252 358.636C429.112 358.674 429.011 358.693 428.932 358.692C428.652 358.689 428.515 358.488 428.52 358.068L428.531 357.09C428.534 356.771 428.577 356.533 428.678 356.394C428.78 356.256 428.961 356.117 429.242 355.981C429.945 355.629 430.787 355.339 431.768 355.111C432.749 354.863 433.788 354.755 434.886 354.767C437.261 354.795 438.992 355.355 440.097 356.445C441.183 357.536 441.723 359.178 441.698 361.374L441.624 367.842L441.664 367.842ZM433.525 370.783C434.183 370.791 434.863 370.679 435.585 370.447C436.306 370.216 436.95 369.784 437.496 369.192C437.82 368.816 438.064 368.399 438.189 367.922C438.314 367.444 438.401 366.866 438.409 366.187L438.418 365.349C437.841 365.203 437.224 365.076 436.586 364.989C435.948 364.901 435.329 364.854 434.711 364.847C433.373 364.832 432.392 365.081 431.727 365.613C431.062 366.144 430.734 366.898 430.723 367.896C430.712 368.834 430.944 369.536 431.437 370.021C431.911 370.525 432.606 370.773 433.525 370.783ZM449.529 373.123C449.17 373.118 448.931 373.057 448.773 372.915C448.615 372.794 448.478 372.512 448.363 372.131L443.848 356.648C443.733 356.247 443.676 355.986 443.678 355.846C443.681 355.527 443.843 355.349 444.163 355.353L446.119 355.376C446.498 355.381 446.757 355.442 446.895 355.584C447.053 355.705 447.17 355.987 447.285 356.368L450.488 369.62L453.753 356.441C453.857 356.043 453.98 355.785 454.141 355.667C454.302 355.549 454.583 355.472 454.942 355.476L456.539 355.495C456.918 355.499 457.177 355.563 457.335 355.704C457.493 355.826 457.63 356.106 457.705 356.486L460.706 369.898L464.313 356.562C464.437 356.164 464.58 355.906 464.721 355.788C464.882 355.67 465.142 355.593 465.502 355.597L467.358 355.619C467.677 355.622 467.855 355.784 467.851 356.123C467.85 356.223 467.829 356.323 467.808 356.442C467.786 356.562 467.745 356.722 467.662 356.941L462.675 372.316C462.55 372.714 462.408 372.971 462.247 373.089C462.086 373.206 461.825 373.283 461.486 373.279L459.769 373.26C459.39 373.255 459.131 373.193 458.973 373.051C458.815 372.91 458.678 372.648 458.603 372.248L455.656 359.338L452.435 372.158C452.331 372.556 452.208 372.814 452.047 372.952C451.885 373.09 451.605 373.146 451.246 373.142L449.529 373.123ZM475.174 373.955C474.136 373.943 473.099 373.813 472.104 373.562C471.108 373.311 470.333 373.041 469.817 372.736C469.5 372.553 469.283 372.351 469.205 372.17C469.127 371.989 469.089 371.789 469.091 371.61L469.103 370.592C469.108 370.173 469.27 369.975 469.569 369.978C469.689 369.98 469.809 370.001 469.928 370.042C470.047 370.083 470.226 370.165 470.425 370.247C471.1 370.555 471.836 370.803 472.612 370.971C473.409 371.14 474.187 371.23 474.985 371.239C476.243 371.253 477.223 371.045 477.907 370.614C478.591 370.182 478.957 369.547 478.967 368.728C478.973 368.169 478.799 367.708 478.444 367.325C478.089 366.941 477.414 366.595 476.44 366.265L473.555 365.333C472.103 364.857 471.033 364.165 470.385 363.26C469.736 362.374 469.408 361.393 469.42 360.355C469.43 359.516 469.618 358.779 469.984 358.144C470.351 357.509 470.836 356.956 471.44 356.524C472.044 356.072 472.727 355.74 473.528 355.51C474.329 355.279 475.169 355.19 476.047 355.2C476.486 355.205 476.945 355.23 477.384 355.295C477.842 355.36 478.26 355.444 478.679 355.529C479.077 355.633 479.455 355.737 479.813 355.861C480.171 355.985 480.449 356.108 480.647 356.23C480.925 356.393 481.123 356.555 481.24 356.736C481.358 356.897 481.416 357.118 481.412 357.398L481.402 358.335C481.397 358.754 481.235 358.972 480.935 358.968C480.775 358.966 480.517 358.885 480.179 358.721C479.048 358.189 477.773 357.914 476.356 357.898C475.218 357.885 474.318 358.054 473.694 358.426C473.071 358.798 472.745 359.374 472.736 360.192C472.729 360.751 472.924 361.232 473.318 361.616C473.713 362 474.448 362.388 475.502 362.739L478.326 363.67C479.758 364.146 480.789 364.796 481.398 365.622C482.007 366.447 482.296 367.39 482.284 368.428C482.274 369.286 482.086 370.062 481.739 370.736C481.372 371.411 480.886 372.004 480.261 372.476C479.637 372.968 478.894 373.32 478.033 373.57C477.131 373.839 476.192 373.967 475.174 373.955Z" fill="white"/>
<path d="M478.833 383.7C472.21 388.475 462.639 390.941 454.435 390.847C442.937 390.715 432.625 386.345 424.881 379.189C424.269 378.623 424.837 377.87 425.57 378.318C433.978 383.326 444.383 386.419 455.183 386.543C462.469 386.627 470.491 385.201 477.892 382.172C478.996 381.685 479.92 382.913 478.833 383.7ZM481.603 380.617C480.777 379.529 476.06 380.034 473.921 380.269C473.281 380.342 473.188 379.782 473.772 379.369C477.555 376.777 483.714 377.607 484.422 378.493C485.131 379.4 484.142 385.557 480.595 388.471C480.051 388.924 479.534 388.679 479.781 388.083C480.602 386.116 482.429 381.684 481.603 380.617Z" fill="white"/>
<path d="M275.122 165.999H224.478C216.709 165.999 210.41 172.297 210.41 180.067V230.711C210.41 238.48 216.709 244.779 224.478 244.779H275.122C282.891 244.779 289.19 238.48 289.19 230.711V180.067C289.19 172.297 282.891 165.999 275.122 165.999Z" fill="white" fill-opacity="0.1"/>
<path d="M275.122 165.53H224.478C216.45 165.53 209.941 172.039 209.941 180.067V230.711C209.941 238.739 216.45 245.248 224.478 245.248H275.122C283.151 245.248 289.659 238.739 289.659 230.711V180.067C289.659 172.039 283.151 165.53 275.122 165.53Z" stroke="white" stroke-opacity="0.2" stroke-width="0.937853"/>
<path d="M229.669 214.575L235.583 176.53C235.626 176.248 235.757 175.987 235.957 175.783C236.157 175.58 236.416 175.445 236.697 175.397C236.978 175.349 237.267 175.392 237.523 175.518C237.779 175.644 237.989 175.848 238.122 176.1L244.482 188.032L229.669 214.575ZM271.673 223.807L266.041 188.795C265.999 188.55 265.891 188.32 265.728 188.132C265.566 187.944 265.354 187.804 265.117 187.728C264.88 187.652 264.627 187.642 264.385 187.7C264.143 187.758 263.921 187.882 263.745 188.057L228.23 223.807L247.881 234.881C248.487 235.222 249.17 235.401 249.865 235.401C250.561 235.401 251.244 235.222 251.85 234.881L271.673 223.807ZM255.704 193.254L251.152 184.546C251.037 184.327 250.865 184.143 250.653 184.015C250.442 183.887 250.199 183.82 249.952 183.82C249.704 183.82 249.462 183.887 249.25 184.015C249.039 184.143 248.866 184.327 248.751 184.546L228.768 220.355L255.704 193.254Z" fill="white"/>
<path d="M425.329 216.794H374.685C366.916 216.794 360.617 223.092 360.617 230.862V281.506C360.617 289.275 366.916 295.574 374.685 295.574H425.329C433.099 295.574 439.397 289.275 439.397 281.506V230.862C439.397 223.092 433.099 216.794 425.329 216.794Z" fill="white" fill-opacity="0.1"/>
<path d="M425.329 216.325H374.685C366.657 216.325 360.148 222.833 360.148 230.862V281.506C360.148 289.534 366.657 296.043 374.685 296.043H425.329C433.358 296.043 439.866 289.534 439.866 281.506V230.862C439.866 222.833 433.358 216.325 425.329 216.325Z" stroke="white" stroke-opacity="0.2" stroke-width="0.937853"/>
<mask id="mask2_503_300" style="mask-type:luminance" maskUnits="userSpaceOnUse" x="369" y="226" width="62" height="61">
<path d="M430.073 226.23L370.051 226.115L369.936 286.138L429.958 286.253L430.073 226.23Z" fill="white"/>
</mask>
<g mask="url(#mask2_503_300)">
<path d="M369.957 276.344C370.062 277.67 370.527 279.004 371.744 280.794C373.191 282.92 375.679 284.091 377.501 282.223C378.729 280.963 392.039 257.802 398.448 249.026C398.624 248.775 398.858 248.57 399.13 248.429C399.402 248.288 399.704 248.215 400.01 248.215C400.316 248.216 400.618 248.29 400.89 248.432C401.161 248.575 401.394 248.78 401.569 249.032C407.945 257.832 421.165 281.044 422.388 282.309C424.203 284.184 426.696 283.023 428.15 280.902C429.58 278.817 429.978 277.355 429.981 275.789C429.983 274.724 409.399 236.24 407.324 233.034C405.33 229.954 404.721 229.283 401.337 229.166L398.756 229.161C395.372 229.265 394.761 229.932 392.751 233.006C390.71 236.136 370.789 273.029 369.959 275.559L369.957 276.344Z" fill="white"/>
</g>
<path d="M322.853 303.863H260.215C256.017 303.863 252.613 307.267 252.613 311.465V374.103C252.613 378.302 256.017 381.705 260.215 381.705H322.853C327.052 381.705 330.455 378.302 330.455 374.103V311.465C330.455 307.267 327.052 303.863 322.853 303.863Z" fill="white" fill-opacity="0.1"/>
<path d="M322.854 303.395H260.216C255.759 303.395 252.145 307.009 252.145 311.466V374.104C252.145 378.562 255.759 382.175 260.216 382.175H322.854C327.312 382.175 330.925 378.562 330.925 374.104V311.466C330.925 307.009 327.312 303.395 322.854 303.395Z" stroke="white" stroke-opacity="0.2" stroke-width="0.937853"/>
<path fill-rule="evenodd" clip-rule="evenodd" d="M300.517 365.851V373.453C301.748 374.092 303.253 374.563 304.926 374.882C306.598 375.201 308.422 375.353 310.247 375.353C312.071 375.353 313.744 375.186 315.416 374.837C317.088 374.487 318.457 373.909 319.673 373.164C320.904 372.358 321.954 371.34 322.562 369.971C323.17 368.603 323.641 367.083 323.641 365.106C323.641 363.723 323.428 362.522 323.018 361.457C322.607 360.393 322.014 359.481 321.193 358.721C320.418 357.915 319.521 357.2 318.457 356.592C317.392 355.984 316.176 355.346 314.808 354.768C313.804 354.357 312.983 353.962 312.071 353.567C311.281 353.172 310.597 352.776 310.095 352.381C309.532 351.97 309.107 351.545 308.803 351.104C308.498 350.648 308.346 350.146 308.346 349.584C308.346 349.067 308.482 348.595 308.757 348.17C309.032 347.744 309.411 347.394 309.897 347.09C310.384 346.786 310.992 346.558 311.722 346.391C312.436 346.224 313.227 346.148 314.154 346.148C314.793 346.148 315.462 346.195 316.131 346.29C316.83 346.386 317.545 346.534 318.259 346.731C318.974 346.929 319.673 347.172 320.388 347.476C321.057 347.78 321.68 348.13 322.212 348.525V341.38C321.057 340.939 319.779 340.604 318.411 340.392C317.043 340.179 315.522 340.072 313.698 340.072C311.874 340.072 310.201 340.27 308.529 340.65C306.856 341.03 305.488 341.638 304.272 342.474C303.04 343.295 302.143 344.299 301.383 345.667C300.669 346.944 300.319 348.404 300.319 350.228C300.319 352.509 300.973 354.485 302.295 356.005C303.603 357.678 305.64 358.894 308.225 360.11C309.274 360.536 310.201 360.962 311.113 361.372C312.026 361.783 312.786 362.209 313.394 362.649C314.048 363.09 314.565 363.577 314.914 364.094C315.294 364.611 315.492 365.219 315.492 365.918C315.492 366.405 315.373 366.861 315.142 367.286C314.911 367.712 314.549 368.077 314.063 368.381C313.576 368.685 312.983 368.928 312.239 369.111C311.524 369.278 310.718 369.369 309.654 369.369C307.982 369.369 306.309 369.08 304.789 368.503C303.116 367.925 301.596 367.058 300.228 365.918L300.517 365.851ZM287.746 347.151H297.476V340.918H270.262V347.151H279.992V374.973H287.746V347.151Z" fill="white"/>
<path d="M347.337 440.79H296.693C288.923 440.79 282.625 447.088 282.625 454.858V505.502C282.625 513.271 288.923 519.57 296.693 519.57H347.337C355.106 519.57 361.405 513.271 361.405 505.502V454.858C361.405 447.088 355.106 440.79 347.337 440.79Z" fill="white" fill-opacity="0.1"/>
<path d="M347.337 440.321H296.693C288.665 440.321 282.156 446.83 282.156 454.858V505.502C282.156 513.531 288.665 520.039 296.693 520.039H347.337C355.365 520.039 361.874 513.531 361.874 505.502V454.858C361.874 446.83 355.365 440.321 347.337 440.321Z" stroke="white" stroke-opacity="0.2" stroke-width="0.937853"/>
<mask id="mask3_503_300" style="mask-type:luminance" maskUnits="userSpaceOnUse" x="294" y="452" width="56" height="56">
<path d="M349.366 452.981H294.816V507.531H349.366V452.981Z" fill="white"/>
</mask>
<g mask="url(#mask3_503_300)">
<path d="M322.091 453.656C307.023 453.656 294.816 465.873 294.816 480.931C294.816 492.988 302.631 503.207 313.46 506.813C314.829 507.07 315.324 506.226 315.324 505.497C315.324 504.849 315.308 503.136 315.298 500.862C307.707 502.505 306.108 497.195 306.108 497.195C304.865 494.051 303.072 493.208 303.072 493.208C300.604 491.522 303.268 491.558 303.268 491.558C306.002 491.743 307.441 494.362 307.441 494.362C309.874 498.535 313.823 497.328 315.387 496.626C315.625 494.868 316.336 493.659 317.11 492.986C311.055 492.302 304.688 489.959 304.688 479.507C304.688 476.522 305.745 474.092 307.492 472.182C307.191 471.499 306.267 468.72 307.733 464.963C307.733 464.963 310.015 464.235 315.233 467.76C317.417 467.155 319.735 466.854 322.052 466.838C324.37 466.854 326.687 467.157 328.87 467.76C334.058 464.235 336.339 464.963 336.339 464.963C337.803 468.72 336.879 471.497 336.613 472.182C338.343 474.092 339.4 476.524 339.4 479.507C339.4 489.982 333.025 492.292 326.963 492.959C327.911 493.775 328.799 495.454 328.799 498.003C328.799 501.651 328.765 504.59 328.765 505.478C328.765 506.187 329.242 507.039 330.647 506.765C341.557 503.197 349.362 492.969 349.362 480.929C349.362 465.872 337.155 453.654 322.088 453.654L322.091 453.656Z" fill="white"/>
</g>
<path d="M194.466 416.406H143.822C136.052 416.406 129.754 422.705 129.754 430.474V481.118C129.754 488.888 136.052 495.186 143.822 495.186H194.466C202.235 495.186 208.534 488.888 208.534 481.118V430.474C208.534 422.705 202.235 416.406 194.466 416.406Z" fill="white" fill-opacity="0.1"/>
<path d="M194.466 415.938H143.822C135.793 415.938 129.285 422.446 129.285 430.474V481.118C129.285 489.147 135.793 495.655 143.822 495.655H194.466C202.494 495.655 209.003 489.147 209.003 481.118V430.474C209.003 422.446 202.494 415.938 194.466 415.938Z" stroke="white" stroke-opacity="0.2" stroke-width="0.937853"/>
<path d="M194.177 438.91L170.97 480.408C170.491 481.265 169.26 481.27 168.773 480.417L145.106 438.914C144.576 437.985 145.371 436.859 146.424 437.048L169.656 441.2C169.804 441.227 169.956 441.226 170.104 441.199L192.85 437.053C193.899 436.862 194.697 437.979 194.177 438.91Z" fill="url(#paint2_linear_503_300)"/>
<path d="M180.724 431.602L163.55 434.967C163.413 434.994 163.289 435.066 163.197 435.171C163.105 435.276 163.05 435.409 163.042 435.549L161.986 453.391C161.98 453.489 161.997 453.587 162.035 453.677C162.074 453.767 162.133 453.847 162.208 453.91C162.283 453.973 162.371 454.018 162.467 454.041C162.562 454.064 162.661 454.065 162.757 454.043L167.538 452.939C167.986 452.836 168.39 453.23 168.298 453.68L166.877 460.636C166.782 461.105 167.221 461.505 167.678 461.366L170.632 460.469C171.09 460.33 171.53 460.731 171.433 461.2L169.175 472.126C169.034 472.81 169.943 473.183 170.322 472.597L170.575 472.205L184.57 444.277C184.804 443.81 184.4 443.277 183.886 443.376L178.964 444.326C178.502 444.415 178.109 443.984 178.239 443.532L181.451 432.396C181.582 431.942 181.187 431.511 180.724 431.602Z" fill="url(#paint3_linear_503_300)"/>
<path d="M169.145 254.157H118.501C110.732 254.157 104.434 260.456 104.434 268.225V318.869C104.434 326.639 110.732 332.937 118.501 332.937H169.145C176.915 332.937 183.213 326.639 183.213 318.869V268.225C183.213 260.456 176.915 254.157 169.145 254.157Z" fill="white" fill-opacity="0.1"/>
<path d="M169.146 253.688H118.502C110.473 253.688 103.965 260.197 103.965 268.225V318.869C103.965 326.898 110.473 333.406 118.502 333.406H169.146C177.174 333.406 183.682 326.898 183.682 318.869V268.225C183.682 260.197 177.174 253.688 169.146 253.688Z" stroke="white" stroke-opacity="0.2" stroke-width="0.937853"/>
<path d="M387.665 559.897H337.021C329.252 559.897 322.953 566.196 322.953 573.965V624.609C322.953 632.379 329.252 638.677 337.021 638.677H387.665C395.434 638.677 401.733 632.379 401.733 624.609V573.965C401.733 566.196 395.434 559.897 387.665 559.897Z" fill="white" fill-opacity="0.1"/>
<path d="M387.665 559.43H337.021C328.993 559.43 322.484 565.938 322.484 573.966V624.61C322.484 632.639 328.993 639.147 337.021 639.147H387.665C395.694 639.147 402.202 632.639 402.202 624.61V573.966C402.202 565.938 395.694 559.43 387.665 559.43Z" stroke="white" stroke-opacity="0.2" stroke-width="0.937853"/>
<path d="M336.088 568.339C335.521 568.339 335.098 568.801 335.149 569.366L339.931 623.014C339.982 623.579 340.47 624.166 341.017 624.318L361.313 629.953C361.86 630.105 362.754 630.105 363.301 629.953L383.659 624.309C384.206 624.157 384.695 623.571 384.745 623.006L389.536 569.366C389.587 568.801 389.163 568.339 388.596 568.339H336.088ZM379.35 580.643C379.305 581.147 379.227 582.022 379.176 582.587L379.05 583.994C379 584.559 378.927 585.367 378.889 585.79C378.851 586.212 378.815 586.558 378.809 586.558C378.802 586.558 378.333 586.558 377.765 586.558H363.374C362.806 586.558 362.337 586.558 362.331 586.558C362.325 586.558 361.856 586.558 361.288 586.558H353.709C353.142 586.558 352.719 587.02 352.769 587.585L353.211 592.527C353.262 593.092 353.767 593.554 354.335 593.554H361.289C361.856 593.554 362.325 593.554 362.331 593.554C362.338 593.554 362.807 593.554 363.374 593.554H375.327C375.894 593.554 376.772 593.554 377.278 593.554C377.783 593.554 378.159 593.967 378.114 594.471C378.068 594.975 377.989 595.85 377.939 596.415L376.517 612.347C376.466 612.912 376.402 613.634 376.374 613.951C376.346 614.268 375.876 614.652 375.329 614.803L363.336 618.129C362.79 618.28 362.335 618.406 362.327 618.407C362.318 618.409 361.864 618.287 361.317 618.135L349.312 614.804C348.765 614.652 348.277 614.065 348.226 613.5L347.453 604.826C347.403 604.261 347.826 603.799 348.394 603.799H349.489C350.057 603.799 350.985 603.799 351.552 603.799H353.186C353.753 603.799 354.259 604.261 354.309 604.826L354.612 608.222C354.663 608.787 355.152 609.37 355.7 609.518L361.316 611.035C361.863 611.183 362.313 611.304 362.316 611.304C362.318 611.304 362.768 611.182 363.316 611.034L368.942 609.514C369.489 609.366 369.979 608.783 370.03 608.218L370.64 601.415C370.69 600.85 370.268 600.388 369.7 600.388H363.374C362.807 600.388 362.338 600.388 362.331 600.388C362.325 600.388 361.856 600.388 361.289 600.388H348.088C347.52 600.388 347.015 599.925 346.965 599.36L345.468 582.587C345.417 582.022 345.339 581.147 345.294 580.643C345.249 580.139 345.677 579.726 346.244 579.726H361.289C361.856 579.726 362.325 579.726 362.331 579.726C362.338 579.726 362.807 579.726 363.374 579.726H378.4C378.968 579.726 379.395 580.139 379.35 580.643Z" fill="white"/>
</g>
<path d="M152.067 74.3333L143 65.3333L172.333 36H190.4L152.067 74.3333ZM172.333 94.6667L156.533 78.8667L172.333 63.0667H190.4L174.6 78.8667L190.4 94.6667H172.333Z" fill="white"/>
<path d="M145.001 295.502C145.001 282.839 164 282.839 164 295.502C164 308.165 145.001 308.165 145.001 295.502ZM126.002 314.503C126.001 313.255 126.246 312.019 126.723 310.867C127.2 309.714 127.9 308.666 128.782 307.784C129.664 306.902 130.712 306.202 131.865 305.725C133.017 305.248 134.253 305.003 135.5 305.003H144.999V314.503C144.999 327.166 126 327.166 126 314.503H126.002ZM145.001 267.002V286.003H154.5C167.161 286.003 167.161 267.002 154.5 267.002H145.001ZM126.002 276.501C126.001 277.749 126.246 278.985 126.723 280.137C127.2 281.29 127.9 282.338 128.782 283.22C129.664 284.102 130.712 284.802 131.865 285.279C133.017 285.756 134.253 286.001 135.5 286.001H144.999V267H135.5C134.253 266.999 133.017 267.245 131.865 267.722C130.712 268.199 129.664 268.899 128.782 269.781C127.9 270.663 127.2 271.711 126.723 272.863C126.246 274.016 126.001 275.252 126.002 276.499V276.501ZM126.002 295.502C126.001 296.75 126.246 297.985 126.723 299.138C127.2 300.291 127.9 301.338 128.782 302.221C129.664 303.103 130.712 303.803 131.865 304.28C133.017 304.757 134.253 305.004 135.5 305.003H144.999V286.001H135.5C134.253 286 133.017 286.245 131.865 286.722C130.712 287.2 129.664 287.899 128.782 288.782C127.9 289.664 127.2 290.711 126.723 291.864C126.246 293.017 126.001 294.253 126.002 295.5V295.502Z" fill="#FFF8F8" fill-opacity="0.95"/>
</g>
<defs>
<radialGradient id="paint0_radial_503_300" cx="0" cy="0" r="1" gradientUnits="userSpaceOnUse" gradientTransform="translate(332 332.938) rotate(90) scale(349.759)">
<stop stop-color="white"/>
<stop offset="1" stop-color="white" stop-opacity="0"/>
</radialGradient>
<linearGradient id="paint1_linear_503_300" x1="141.949" y1="-81.5932" x2="363.282" y2="699.638" gradientUnits="userSpaceOnUse">
<stop offset="0.416946"/>
<stop offset="0.880782" stop-opacity="0.02"/>
</linearGradient>
<linearGradient id="paint2_linear_503_300" x1="144.528" y1="440.396" x2="169.557" y2="474.387" gradientUnits="userSpaceOnUse">
<stop stop-color="white" stop-opacity="0"/>
<stop offset="1" stop-color="white"/>
</linearGradient>
<linearGradient id="paint3_linear_503_300" x1="171.811" y1="432.516" x2="176.959" y2="467.836" gradientUnits="userSpaceOnUse">
<stop offset="0.0001" stop-color="white"/>
</linearGradient>
<clipPath id="clip0_503_300">
<rect width="664" height="665" fill="white"/>
</clipPath>
</defs>
</svg>
