<svg width="708" height="709" viewBox="0 0 708 709" fill="none" xmlns="http://www.w3.org/2000/svg">
<g clip-path="url(#clip0_503_157)">
<path d="M707.423 537.488V356.001H707.999V353.998H707.423V172.511C707.413 128.004 690.092 85.245 659.125 53.2767V49.9837H707.423V47.9667H660.525L705.557 2.68768L704.185 1.31559L659.166 46.5946V2.28977H657.163V47.9667H653.76C622.252 17.8473 580.35 1.02654 536.762 1H170.647C127.078 1.04065 85.198 17.8604 53.7037 47.9667H50.2872V2.28977H48.2976V46.5534L3.2793 1.27441L1.90721 2.64651L46.9255 47.9255H2.85395V49.9288H48.2976V53.2767C17.3269 85.2425 0.00617912 128.003 0 172.511V537.488C0.00617912 581.996 17.3269 624.757 48.2976 656.723V660.071H2.85395V662.074H46.8844L1.86605 707.353L3.23814 708.725L48.2565 663.446V707.71H50.246V662.033H53.6625C85.1671 692.149 127.064 708.969 170.647 708.999H536.762C580.336 708.962 622.222 692.142 653.719 662.033H657.122V707.71H659.125V663.446L704.144 708.725L705.516 707.353L660.484 662.074H707.999V660.071H659.125V656.723C690.085 624.75 707.404 581.994 707.423 537.488ZM705.42 537.488C705.416 580.754 688.851 622.377 659.125 653.814V481.85H704.706V479.86H659.125V356.001H705.42V537.488ZM479.313 479.86L477.941 478.488C480.218 476.174 482.427 473.795 484.568 471.353V479.86H479.313ZM484.568 481.863V485.143L481.302 481.863H484.568ZM223.994 479.86V472.656C225.778 474.646 227.616 476.581 229.482 478.488L228.11 479.86H223.994ZM226.121 481.863L223.994 483.976V481.85L226.121 481.863ZM228.11 230.139L229.482 231.511C227.616 233.419 225.778 235.367 223.994 237.343V230.139H228.11ZM223.994 228.136V226.023L226.121 228.15L223.994 228.136ZM484.568 230.139V238.646C482.427 236.204 480.218 233.826 477.941 231.511L479.313 230.139H484.568ZM481.302 228.136L484.568 224.857V228.136H481.302ZM484.568 353.984H479.875C479.667 321.065 466.668 289.516 443.625 266.006L476.555 232.938C479.299 235.747 481.979 238.66 484.595 241.679L484.568 353.984ZM486.557 244.052C512.149 274.984 526.213 313.838 526.348 353.984H486.557V244.052ZM442.211 267.378C464.892 290.5 477.686 321.541 477.886 353.929H356.113L442.211 267.378ZM354.713 352.448V230.139C386.992 230.365 417.896 243.231 440.798 265.978L354.713 352.448ZM352.71 352.448L266.611 265.882C289.539 243.177 320.443 230.347 352.71 230.139V352.448ZM351.338 353.82H229.537C229.744 321.432 242.537 290.395 265.212 267.268L351.338 353.82ZM351.338 355.823L265.239 442.374C242.564 419.248 229.771 388.21 229.565 355.823H351.338ZM352.71 357.195V479.86C320.425 479.633 289.515 466.762 266.611 444.007L352.71 357.195ZM354.713 357.195L440.798 443.747C417.943 466.598 387.031 479.566 354.713 479.86V357.195ZM356.085 355.823H477.845C477.645 388.212 464.851 419.252 442.17 442.374L356.085 355.823ZM475.114 231.511L442.184 264.593C424.109 246.661 401.012 234.645 375.953 230.139H473.715L475.114 231.511ZM354.713 228.136V181.389C398.198 181.601 439.98 198.314 471.615 228.15L354.713 228.136ZM352.71 228.136H235.808C267.438 198.292 309.223 181.578 352.71 181.375V228.136ZM331.456 230.139C306.39 234.646 283.284 246.661 265.198 264.593L232.268 231.511L233.64 230.139H331.456ZM230.896 232.883L263.826 265.951C240.772 289.454 227.771 321.008 227.575 353.929H224.021V240.375C226.23 237.837 228.522 235.353 230.896 232.952V232.883ZM222.004 353.929H181.02C181.173 313.168 195.684 273.764 222.004 242.639V353.929ZM222.004 355.933V467.223C195.684 436.098 181.173 396.694 181.02 355.933H222.004ZM223.994 355.933H227.548C227.741 388.851 240.743 420.401 263.798 443.897L230.868 476.979C228.494 474.577 226.203 472.094 224.008 469.556L223.994 355.933ZM232.309 478.488L265.239 445.407C283.314 463.331 306.404 475.345 331.456 479.86H233.708L232.309 478.488ZM352.71 481.863V528.624C309.223 528.421 267.438 511.707 235.808 481.863H352.71ZM354.713 481.863H471.615C439.98 511.699 398.198 528.412 354.713 528.624V481.863ZM375.953 479.86C401.022 475.359 424.129 463.343 442.211 445.407L475.142 478.488L473.77 479.86H375.953ZM476.527 477.116L443.597 444.035C466.643 420.532 479.643 388.986 479.848 356.07H484.54V468.376C481.979 471.339 479.308 474.253 476.527 477.116ZM486.557 356.07H526.348C526.213 396.216 512.149 435.07 486.557 466.002V356.07ZM528.392 354.067C528.24 312.63 513.419 272.585 486.557 241.034V230.139H592.071C611.933 268.406 622.345 310.871 622.436 353.984L528.392 354.067ZM486.557 228.218V222.922L544.432 164.759C562.966 183.532 578.66 204.91 591.015 228.218H486.557ZM486.557 220.096V120.125C507.198 131.952 526.183 146.457 543.019 163.264L486.557 220.096ZM484.568 222.099L478.49 228.218H474.524C442.373 197.107 399.452 179.608 354.713 179.372V84.8622C400.203 84.9621 444.91 96.715 484.568 119V222.099ZM352.71 179.372C307.982 179.583 265.062 197.052 232.899 228.136H228.933L223.994 223.169V118.341C263.376 96.4702 307.662 84.9466 352.71 84.8485V179.372ZM222.004 221.18L164.377 163.264C181.534 146.149 200.918 131.423 222.004 119.48V221.18ZM222.004 224.02V228.136H116.353C128.704 204.825 144.398 183.446 162.936 164.677L222.004 224.02ZM222.004 230.153V239.62C194.433 271.364 179.178 311.953 179.017 353.998H84.9874C85.0763 310.88 95.488 268.41 115.352 230.139L222.004 230.153ZM179.017 356.001C179.178 398.046 194.433 438.635 222.004 470.379V479.86H115.352C95.4901 441.594 85.0784 399.129 84.9874 356.015L179.017 356.001ZM222.004 481.85V485.966L163.004 545.281C144.466 526.512 128.773 505.133 116.422 481.822L222.004 481.85ZM222.004 488.82V590.519C200.918 578.577 181.534 563.85 164.377 546.736L222.004 488.82ZM223.994 486.816L228.933 481.85H232.899C265.059 512.939 307.98 530.412 352.71 530.627V625.165C307.662 625.055 263.377 613.527 223.994 591.658V486.816ZM354.713 530.627C399.441 530.413 442.36 512.945 474.524 481.863H478.49L484.568 487.983V590.999C444.908 613.282 400.204 625.039 354.713 625.151V530.627ZM486.557 489.986L543.019 546.749C526.177 563.548 507.192 578.053 486.557 589.888V489.986ZM486.557 487.16V481.863H591.015C578.66 505.171 562.966 526.55 544.432 545.322L486.557 487.16ZM486.557 479.86V469.048C513.419 437.496 528.24 397.452 528.392 356.015H622.436C622.345 399.129 611.933 441.594 592.071 479.86H486.557ZM624.425 356.015H657.122V479.86H594.322C614.022 441.54 624.339 399.089 624.425 356.001V356.015ZM624.425 354.012C624.342 310.92 614.024 268.464 594.322 230.139H657.122V353.984L624.425 354.012ZM593.265 228.163C580.742 204.316 564.763 182.451 545.846 163.277L655.86 52.7278L655.956 52.8102C656.368 53.2355 656.779 53.6883 657.191 54.1823V228.15L593.265 228.163ZM654.351 51.342L544.432 161.85C527.199 144.649 507.733 129.84 486.557 117.82V49.97H652.924L654.351 51.342ZM484.568 116.708C444.848 94.6093 400.167 82.9575 354.713 82.8453V49.9151H484.568V116.708ZM354.713 47.9667V3.00325H484.568V47.9667H354.713ZM352.71 47.9667H223.994V3.00325H352.71V47.9667ZM352.71 49.97V82.9001C307.698 83.0055 263.435 94.4286 223.994 116.118V49.97H352.71ZM222.004 117.202C200.391 129.327 180.54 144.354 163.004 161.864L53.0862 51.3558L54.4583 49.9837H222.004V117.202ZM51.5358 52.8102L51.6181 52.7278L161.578 163.264C142.652 182.434 126.668 204.3 114.144 228.15H50.2872V54.1274C50.7674 53.6883 51.1104 53.2355 51.5358 52.8102ZM113.102 230.139C93.4035 268.455 83.0859 310.901 82.9978 353.984H50.2872V230.139H113.102ZM82.9978 355.988C83.0815 399.08 93.3992 441.536 113.102 479.86H50.2872V356.001L82.9978 355.988ZM114.144 481.836C126.668 505.686 142.652 527.552 161.578 546.722L51.6181 657.271L51.5358 657.189C51.1104 656.764 50.7125 656.311 50.2872 655.817V481.85L114.144 481.836ZM53.0725 658.657L162.991 548.149C180.53 565.659 200.38 580.69 221.991 592.824V660.057H54.4995L53.0725 658.657ZM223.994 593.936C263.435 615.626 307.698 627.049 352.71 627.154V660.084H223.994V593.936ZM352.71 662.033V706.996H223.994V662.033H352.71ZM354.713 662.033H484.568V706.996H354.713V662.033ZM354.713 660.029V627.099C400.167 626.987 444.848 615.335 484.568 593.236V659.974L354.713 660.029ZM486.557 592.179C507.733 580.159 527.199 565.35 544.432 548.149L654.351 658.657L652.978 660.029H486.557V592.179ZM655.86 657.189L655.764 657.271L545.818 546.736C564.735 527.562 580.714 505.697 593.237 481.85H657.095V655.872L655.86 657.189ZM705.42 172.511V353.998H659.125V230.139H704.706V228.136H659.125V56.2267C688.842 87.6533 705.406 129.26 705.42 172.511ZM650.838 47.9255H486.557V3.00325H536.762C579.104 3.03452 619.862 19.0997 650.838 47.9667V47.9255ZM170.606 2.96209H222.004V47.9255H56.5851C87.5628 19.0756 128.316 3.02544 170.647 3.00325L170.606 2.96209ZM1.98953 537.488V172.511C1.99809 129.244 18.5677 87.6211 48.2976 56.1855V228.109H2.74418V230.139H48.2976V353.984H2.57953V355.988H48.2976V479.86H2.74418V481.863H48.2976V653.786C18.5743 622.358 2.0051 580.746 1.98953 537.488ZM56.5851 662.074H222.004V707.037H170.647C128.305 706.993 87.5502 690.913 56.5851 662.033V662.074ZM536.817 707.037H486.557V662.033H650.838C619.861 690.897 579.103 706.962 536.762 706.996L536.817 707.037Z" fill="url(#paint0_radial_503_157)"/>
<mask id="mask0_503_157" style="mask-type:alpha" maskUnits="userSpaceOnUse" x="32" y="0" width="631" height="709">
<path d="M663 0H32V709H663V0Z" fill="url(#paint1_linear_503_157)"/>
</mask>
<g mask="url(#mask0_503_157)">
<path d="M134 623.456C134 617.989 134 615.255 135.081 613.175C135.992 611.421 137.421 609.992 139.175 609.081C141.255 608 143.989 608 149.456 608H202.544C208.011 608 210.745 608 212.825 609.081C214.579 609.992 216.008 611.421 216.919 613.175C218 615.255 218 617.989 218 623.456V676.544C218 682.011 218 684.745 216.919 686.825C216.008 688.579 214.579 690.008 212.825 690.919C210.745 692 208.011 692 202.544 692H149.456C143.989 692 141.255 692 139.175 690.919C137.421 690.008 135.992 688.579 135.081 686.825C134 684.745 134 682.011 134 676.544V623.456Z" fill="#0F172A" fill-opacity="0.1"/>
<path d="M202.544 607.5H149.456H149.432C146.719 607.5 144.652 607.5 143.004 607.637C141.346 607.775 140.068 608.053 138.944 608.637C137.099 609.595 135.595 611.099 134.637 612.944C134.053 614.068 133.775 615.346 133.637 617.004C133.5 618.652 133.5 620.719 133.5 623.432V623.456V676.544V676.568C133.5 679.281 133.5 681.348 133.637 682.996C133.775 684.654 134.053 685.932 134.637 687.056C135.595 688.901 137.099 690.405 138.944 691.363C140.068 691.947 141.346 692.225 143.004 692.363C144.652 692.5 146.719 692.5 149.432 692.5H149.456H202.544H202.568C205.281 692.5 207.348 692.5 208.996 692.363C210.654 692.225 211.932 691.947 213.056 691.363C214.901 690.405 216.405 688.901 217.363 687.056C217.947 685.932 218.225 684.654 218.363 682.996C218.5 681.348 218.5 679.281 218.5 676.568V676.544V623.456V623.432C218.5 620.719 218.5 618.652 218.363 617.004C218.225 615.346 217.947 614.068 217.363 612.944C216.405 611.099 214.901 609.595 213.056 608.637C211.932 608.053 210.654 607.775 208.996 607.637C207.348 607.5 205.281 607.5 202.568 607.5H202.544Z" stroke="#0F172A" stroke-opacity="0.2"/>
<path d="M150.625 621H201.375L196.759 673.111L175.944 679L155.246 673.108L150.625 621ZM191.926 631.665L160.074 631.657L160.589 637.994L185.058 637.999L184.441 644.562H168.395L168.975 650.781H183.915L183.03 659.294L175.998 661.237L168.854 659.28L168.4 654.181H162.092L162.793 663.497L176 667.613L188.985 663.915L191.926 631.667V631.665Z" fill="#0F172A"/>
<path d="M428.633 70.6328H375.633C367.349 70.6328 360.633 77.3485 360.633 85.6328V138.633C360.633 146.917 367.349 153.633 375.633 153.633H428.633C436.917 153.633 443.633 146.917 443.633 138.633V85.6328C443.633 77.3485 436.917 70.6328 428.633 70.6328Z" fill="#0F172A" fill-opacity="0.1"/>
<path d="M428.633 70.1328H375.633C367.072 70.1328 360.133 77.0724 360.133 85.6328V138.633C360.133 147.193 367.072 154.133 375.633 154.133H428.633C437.193 154.133 444.133 147.193 444.133 138.633V85.6328C444.133 77.0724 437.193 70.1328 428.633 70.1328Z" stroke="#0F172A" stroke-opacity="0.2"/>
<path d="M416.385 135.477C418.057 138.206 420.232 140.213 424.079 140.213C427.311 140.213 429.375 138.598 429.375 136.366C429.375 133.691 427.254 132.744 423.697 131.188L421.747 130.352C416.119 127.954 412.38 124.95 412.38 118.6C412.38 112.75 416.837 108.297 423.803 108.297C428.761 108.297 432.326 110.023 434.896 114.542L428.822 118.442C427.485 116.044 426.042 115.099 423.803 115.099C421.518 115.099 420.07 116.549 420.07 118.442C420.07 120.782 421.519 121.729 424.866 123.178L426.816 124.013C433.442 126.855 437.184 129.752 437.184 136.266C437.184 143.288 431.668 147.135 424.26 147.135C417.016 147.135 412.337 143.683 410.047 139.159L416.385 135.477ZM388.833 136.152C390.058 138.326 391.173 140.164 393.853 140.164C396.415 140.164 398.032 139.162 398.032 135.263V108.743H405.831V135.369C405.831 143.445 401.096 147.12 394.185 147.12C387.94 147.12 384.324 143.889 382.484 139.996L388.833 136.152Z" fill="#0F172A"/>
<path d="M557.96 355.79L503.964 355.172C495.68 355.077 488.888 361.715 488.793 369.999L488.175 423.995C488.08 432.279 494.718 439.071 503.002 439.166L556.998 439.785C565.282 439.88 572.074 433.241 572.169 424.958L572.788 370.961C572.882 362.677 566.244 355.885 557.96 355.79Z" fill="#0F172A" fill-opacity="0.1"/>
<path d="M557.964 355.29L503.968 354.672C495.408 354.574 488.389 361.433 488.291 369.993L487.673 423.99C487.575 432.549 494.434 439.568 502.994 439.666L556.991 440.285C565.551 440.383 572.569 433.523 572.667 424.963L573.286 370.967C573.384 362.407 566.524 355.388 557.964 355.29Z" stroke="#0F172A" stroke-opacity="0.2"/>
<path d="M516.573 392.218C516.564 393.006 516.642 393.645 516.786 394.115C516.95 394.585 517.157 395.098 517.449 395.655C517.554 395.827 517.594 395.998 517.592 396.146C517.59 396.359 517.46 396.571 517.181 396.78L515.83 397.659C515.637 397.784 515.444 397.846 515.274 397.844C515.061 397.842 514.85 397.733 514.639 397.539C514.345 397.216 514.093 396.873 513.884 396.53C513.675 396.165 513.467 395.759 513.239 395.266C511.556 397.206 509.459 398.161 506.947 398.132C505.16 398.112 503.739 397.584 502.708 396.551C501.677 395.517 501.16 394.149 501.18 392.446C501.201 390.637 501.856 389.176 503.167 388.084C504.478 386.992 506.208 386.458 508.401 386.483C509.124 386.492 509.869 386.564 510.655 386.679C511.441 386.795 512.248 386.974 513.097 387.176L513.115 385.622C513.134 384.004 512.806 382.872 512.154 382.205C511.48 381.537 510.334 381.205 508.696 381.186C507.951 381.178 507.183 381.254 506.394 381.437C505.604 381.619 504.835 381.844 504.087 382.134C503.744 382.279 503.488 382.361 503.339 382.402C503.189 382.443 503.082 382.463 502.997 382.462C502.699 382.459 502.553 382.244 502.558 381.797L502.57 380.754C502.574 380.414 502.619 380.159 502.727 380.011C502.835 379.863 503.029 379.716 503.328 379.571C504.078 379.196 504.975 378.887 506.021 378.644C507.067 378.379 508.176 378.264 509.346 378.277C511.879 378.306 513.724 378.902 514.903 380.065C516.06 381.228 516.636 382.98 516.61 385.321L516.531 392.218H516.573ZM507.895 395.354C508.597 395.362 509.322 395.243 510.091 394.996C510.86 394.75 511.547 394.289 512.129 393.657C512.474 393.257 512.735 392.813 512.868 392.303C513.002 391.794 513.094 391.178 513.102 390.454L513.112 389.56C512.497 389.404 511.839 389.269 511.158 389.176C510.478 389.083 509.819 389.033 509.159 389.025C507.733 389.009 506.687 389.274 505.978 389.84C505.269 390.407 504.919 391.212 504.907 392.276C504.896 393.276 505.143 394.024 505.669 394.541C506.174 395.079 506.916 395.343 507.895 395.354ZM524.96 397.849C524.577 397.844 524.322 397.778 524.153 397.627C523.984 397.497 523.839 397.197 523.716 396.791L518.902 380.281C518.78 379.854 518.719 379.577 518.721 379.428C518.725 379.087 518.897 378.898 519.238 378.901L521.323 378.925C521.728 378.93 522.004 378.997 522.151 379.148C522.32 379.277 522.444 379.577 522.567 379.983L525.982 394.114L529.463 380.062C529.575 379.637 529.706 379.362 529.877 379.236C530.049 379.11 530.348 379.029 530.731 379.033L532.434 379.053C532.838 379.057 533.114 379.124 533.283 379.275C533.452 379.405 533.597 379.705 533.678 380.11L536.877 394.409L540.723 380.191C540.855 379.766 541.008 379.491 541.158 379.365C541.33 379.24 541.607 379.158 541.99 379.162L543.97 379.185C544.31 379.189 544.5 379.361 544.496 379.723C544.495 379.829 544.472 379.936 544.449 380.063C544.427 380.19 544.382 380.36 544.294 380.593L538.976 396.987C538.844 397.412 538.692 397.687 538.52 397.812C538.348 397.938 538.071 398.02 537.709 398.016L535.878 397.995C535.474 397.99 535.198 397.923 535.029 397.772C534.861 397.622 534.715 397.343 534.635 396.916L531.493 383.15L528.058 396.82C527.947 397.244 527.816 397.52 527.644 397.667C527.472 397.814 527.173 397.874 526.79 397.87L524.96 397.849ZM552.303 398.737C551.197 398.724 550.091 398.584 549.03 398.316C547.969 398.048 547.142 397.762 546.592 397.437C546.254 397.241 546.022 397.026 545.939 396.833C545.856 396.641 545.816 396.427 545.818 396.236L545.831 395.15C545.836 394.703 546.008 394.492 546.328 394.496C546.455 394.497 546.583 394.52 546.71 394.564C546.837 394.608 547.028 394.696 547.24 394.783C547.96 395.111 548.744 395.375 549.573 395.555C550.422 395.735 551.251 395.83 552.102 395.839C553.443 395.855 554.489 395.632 555.218 395.173C555.947 394.713 556.338 394.036 556.348 393.163C556.355 392.567 556.169 392.075 555.79 391.667C555.412 391.258 554.692 390.888 553.653 390.535L550.578 389.542C549.03 389.035 547.889 388.298 547.197 387.332C546.506 386.388 546.156 385.34 546.169 384.234C546.179 383.34 546.379 382.554 546.77 381.878C547.161 381.201 547.679 380.611 548.323 380.15C548.967 379.668 549.695 379.314 550.549 379.069C551.403 378.823 552.298 378.727 553.235 378.737C553.703 378.743 554.193 378.77 554.66 378.839C555.149 378.908 555.595 378.999 556.041 379.089C556.465 379.2 556.868 379.311 557.25 379.443C557.632 379.575 557.928 379.707 558.14 379.837C558.436 380.01 558.647 380.183 558.772 380.376C558.898 380.548 558.959 380.783 558.956 381.081L558.944 382.081C558.939 382.528 558.766 382.76 558.447 382.757C558.277 382.755 558.001 382.666 557.641 382.492C556.434 381.925 555.075 381.632 553.564 381.615C552.351 381.601 551.391 381.782 550.726 382.178C550.062 382.575 549.714 383.189 549.704 384.061C549.697 384.657 549.904 385.171 550.325 385.58C550.746 385.989 551.529 386.403 552.653 386.777L555.665 387.77C557.192 388.277 558.291 388.971 558.94 389.851C559.59 390.731 559.898 391.735 559.885 392.842C559.875 393.757 559.674 394.585 559.304 395.304C558.912 396.024 558.394 396.656 557.728 397.16C557.062 397.684 556.271 398.058 555.352 398.325C554.391 398.612 553.389 398.749 552.303 398.737Z" fill="#0F172A"/>
<path d="M556.206 409.127C549.144 414.219 538.939 416.848 530.191 416.748C517.931 416.607 506.937 411.947 498.679 404.317C498.026 403.713 498.632 402.911 499.414 403.389C508.378 408.728 519.474 412.027 530.989 412.159C538.757 412.248 547.311 410.728 555.203 407.497C556.38 406.979 557.365 408.289 556.206 409.127ZM559.16 405.84C558.279 404.68 553.249 405.219 550.969 405.469C550.287 405.547 550.187 404.949 550.809 404.51C554.843 401.746 561.411 402.63 562.166 403.575C562.921 404.542 561.867 411.107 558.085 414.215C557.505 414.698 556.954 414.436 557.217 413.8C558.092 411.703 560.041 406.978 559.16 405.84Z" fill="#0F172A"/>
<path d="M338.5 176.5H284.5C276.216 176.5 269.5 183.216 269.5 191.5V245.5C269.5 253.784 276.216 260.5 284.5 260.5H338.5C346.784 260.5 353.5 253.784 353.5 245.5V191.5C353.5 183.216 346.784 176.5 338.5 176.5Z" fill="#0F172A" fill-opacity="0.1"/>
<path d="M338.5 176H284.5C275.94 176 269 182.94 269 191.5V245.5C269 254.06 275.94 261 284.5 261H338.5C347.06 261 354 254.06 354 245.5V191.5C354 182.94 347.06 176 338.5 176Z" stroke="#0F172A" stroke-opacity="0.2"/>
<path d="M290.533 228.795L296.84 188.228C296.886 187.928 297.025 187.649 297.238 187.432C297.452 187.215 297.728 187.071 298.028 187.02C298.328 186.97 298.636 187.015 298.909 187.149C299.181 187.284 299.405 187.501 299.547 187.77L306.329 200.493L290.533 228.795ZM335.321 238.638L329.316 201.306C329.272 201.044 329.156 200.8 328.983 200.599C328.809 200.399 328.584 200.25 328.331 200.168C328.078 200.087 327.808 200.077 327.55 200.139C327.292 200.201 327.056 200.332 326.868 200.519L289 238.638L309.953 250.446C310.599 250.809 311.328 251 312.069 251C312.81 251 313.539 250.809 314.185 250.446L335.321 238.638ZM318.294 206.061L313.441 196.775C313.318 196.542 313.134 196.346 312.909 196.21C312.683 196.073 312.424 196.001 312.161 196.001C311.897 196.001 311.638 196.073 311.413 196.21C311.187 196.346 311.003 196.542 310.881 196.775L289.573 234.958L318.294 206.061Z" fill="#0F172A"/>
<path d="M499.16 231.161H445.16C436.876 231.161 430.16 237.877 430.16 246.161V300.161C430.16 308.445 436.876 315.161 445.16 315.161H499.16C507.444 315.161 514.16 308.445 514.16 300.161V246.161C514.16 237.877 507.444 231.161 499.16 231.161Z" fill="#0F172A" fill-opacity="0.1"/>
<path d="M499.16 230.661H445.16C436.6 230.661 429.66 237.601 429.66 246.161V300.161C429.66 308.722 436.6 315.661 445.16 315.661H499.16C507.721 315.661 514.66 308.722 514.66 300.161V246.161C514.66 237.601 507.721 230.661 499.16 230.661Z" stroke="#0F172A" stroke-opacity="0.2"/>
<path d="M389.895 324H323.105C318.629 324 315 327.629 315 332.105V398.895C315 403.371 318.629 407 323.105 407H389.895C394.371 407 398 403.371 398 398.895V332.105C398 327.629 394.371 324 389.895 324Z" fill="#0F172A" fill-opacity="0.1"/>
<path d="M389.895 323.5H323.105C318.353 323.5 314.5 327.353 314.5 332.105V398.895C314.5 403.647 318.353 407.5 323.105 407.5H389.895C394.647 407.5 398.5 403.647 398.5 398.895V332.105C398.5 327.353 394.647 323.5 389.895 323.5Z" stroke="#0F172A" stroke-opacity="0.2"/>
<path fill-rule="evenodd" clip-rule="evenodd" d="M366.076 390.096V398.201C367.389 398.882 368.994 399.385 370.777 399.725C372.561 400.065 374.506 400.227 376.451 400.227C378.397 400.227 380.18 400.049 381.963 399.676C383.746 399.303 385.205 398.687 386.502 397.893C387.815 397.034 388.934 395.948 389.582 394.489C390.23 393.03 390.733 391.409 390.733 389.301C390.733 387.826 390.506 386.545 390.068 385.411C389.631 384.276 388.998 383.303 388.123 382.493C387.296 381.634 386.34 380.872 385.205 380.223C384.07 379.575 382.773 378.894 381.314 378.278C380.245 377.84 379.369 377.419 378.397 376.997C377.554 376.576 376.824 376.154 376.289 375.733C375.689 375.295 375.235 374.841 374.911 374.371C374.587 373.885 374.425 373.35 374.425 372.75C374.425 372.199 374.569 371.696 374.863 371.242C375.156 370.788 375.56 370.416 376.078 370.091C376.597 369.767 377.246 369.524 378.024 369.346C378.786 369.167 379.629 369.086 380.617 369.086C381.298 369.086 382.012 369.137 382.725 369.239C383.471 369.341 384.232 369.498 384.994 369.709C385.756 369.92 386.502 370.179 387.264 370.503C387.977 370.827 388.642 371.2 389.209 371.622V364.003C387.977 363.532 386.615 363.176 385.156 362.949C383.697 362.722 382.076 362.608 380.131 362.608C378.186 362.608 376.403 362.819 374.619 363.224C372.836 363.63 371.377 364.278 370.08 365.17C368.767 366.045 367.811 367.115 367 368.574C366.238 369.936 365.865 371.492 365.865 373.437C365.865 375.869 366.563 377.976 367.973 379.597C369.367 381.381 371.539 382.678 374.295 383.974C375.414 384.428 376.403 384.882 377.375 385.32C378.348 385.758 379.158 386.212 379.807 386.682C380.504 387.152 381.055 387.671 381.428 388.222C381.833 388.773 382.044 389.421 382.044 390.167C382.044 390.686 381.918 391.172 381.671 391.626C381.425 392.08 381.039 392.469 380.52 392.793C380.001 393.117 379.369 393.377 378.575 393.571C377.813 393.75 376.954 393.847 375.819 393.847C374.036 393.847 372.253 393.539 370.631 392.923C368.848 392.307 367.227 391.383 365.768 390.167L366.076 390.096ZM352.459 370.156H362.834V363.51H333.816V370.156H344.191V399.822H352.459V370.156Z" fill="#0F172A"/>
<path d="M416 470H362C353.716 470 347 476.716 347 485V539C347 547.284 353.716 554 362 554H416C424.284 554 431 547.284 431 539V485C431 476.716 424.284 470 416 470Z" fill="#0F172A" fill-opacity="0.1"/>
<path d="M416 469.5H362C353.44 469.5 346.5 476.44 346.5 485V539C346.5 547.56 353.44 554.5 362 554.5H416C424.56 554.5 431.5 547.56 431.5 539V485C431.5 476.44 424.56 469.5 416 469.5Z" stroke="#0F172A" stroke-opacity="0.2"/>
<mask id="mask1_503_157" style="mask-type:luminance" maskUnits="userSpaceOnUse" x="360" y="483" width="59" height="59">
<path d="M418.164 483H360V541.164H418.164V483Z" fill="white"/>
</mask>
<g mask="url(#mask1_503_157)">
<path d="M389.082 483.719C373.016 483.719 360 496.746 360 512.801C360 525.657 368.332 536.554 379.879 540.398C381.339 540.673 381.866 539.773 381.866 538.995C381.866 538.304 381.85 536.478 381.839 534.053C373.745 535.805 372.04 530.143 372.04 530.143C370.715 526.791 368.803 525.892 368.803 525.892C366.171 524.094 369.012 524.132 369.012 524.132C371.927 524.33 373.461 527.122 373.461 527.122C376.055 531.572 380.267 530.285 381.933 529.536C382.188 527.662 382.946 526.373 383.771 525.655C377.315 524.927 370.526 522.427 370.526 511.283C370.526 508.101 371.653 505.509 373.516 503.473C373.194 502.744 372.209 499.781 373.772 495.775C373.772 495.775 376.206 494.999 381.77 498.758C384.098 498.113 386.57 497.791 389.04 497.775C391.512 497.791 393.982 498.115 396.311 498.758C401.842 494.999 404.274 495.775 404.274 495.775C405.835 499.781 404.85 502.742 404.566 503.473C406.411 505.509 407.538 508.103 407.538 511.283C407.538 522.453 400.74 524.916 394.277 525.626C395.287 526.497 396.234 528.287 396.234 531.005C396.234 534.894 396.198 538.028 396.198 538.975C396.198 539.731 396.707 540.64 398.205 540.347C409.838 536.543 418.16 525.637 418.16 512.799C418.16 496.744 405.144 483.717 389.078 483.717L389.082 483.719Z" fill="#0F172A"/>
</g>
<path d="M253 444H199C190.716 444 184 450.716 184 459V513C184 521.284 190.716 528 199 528H253C261.284 528 268 521.284 268 513V459C268 450.716 261.284 444 253 444Z" fill="#0F172A" fill-opacity="0.1"/>
<path d="M253 443.5H199C190.44 443.5 183.5 450.44 183.5 459V513C183.5 521.56 190.44 528.5 199 528.5H253C261.56 528.5 268.5 521.56 268.5 513V459C268.5 450.44 261.56 443.5 253 443.5Z" stroke="#0F172A" stroke-opacity="0.2"/>
<path d="M252.69 467.995L227.945 512.243C227.434 513.157 226.121 513.162 225.603 512.253L200.367 467.999C199.802 467.009 200.65 465.809 201.772 466.01L226.544 470.437C226.702 470.465 226.863 470.465 227.021 470.436L251.275 466.016C252.393 465.812 253.245 467.003 252.69 467.995Z" fill="url(#paint2_linear_503_157)"/>
<path d="M238.344 460.202L220.033 463.791C219.886 463.82 219.754 463.895 219.656 464.008C219.558 464.12 219.5 464.262 219.491 464.411L218.364 483.436C218.358 483.54 218.376 483.644 218.418 483.74C218.459 483.837 218.522 483.922 218.602 483.989C218.681 484.057 218.776 484.104 218.878 484.128C218.979 484.153 219.085 484.154 219.187 484.131L224.285 482.954C224.762 482.844 225.193 483.264 225.095 483.744L223.58 491.161C223.479 491.66 223.947 492.086 224.435 491.938L227.584 490.981C228.072 490.833 228.541 491.261 228.438 491.761L226.031 503.412C225.88 504.14 226.849 504.538 227.253 503.913L227.524 503.497L242.445 473.718C242.695 473.22 242.264 472.651 241.717 472.757L236.468 473.77C235.975 473.865 235.556 473.404 235.695 472.922L239.12 461.049C239.26 460.566 238.837 460.105 238.344 460.202Z" fill="url(#paint3_linear_503_157)"/>
<path d="M226 271H172C163.716 271 157 277.716 157 286V340C157 348.284 163.716 355 172 355H226C234.284 355 241 348.284 241 340V286C241 277.716 234.284 271 226 271Z" fill="#0F172A" fill-opacity="0.1"/>
<path d="M226 270.5H172C163.44 270.5 156.5 277.44 156.5 286V340C156.5 348.56 163.44 355.5 172 355.5H226C234.56 355.5 241.5 348.56 241.5 340V286C241.5 277.44 234.56 270.5 226 270.5Z" stroke="#0F172A" stroke-opacity="0.2"/>
<path d="M459 597H405C396.716 597 390 603.716 390 612V666C390 674.284 396.716 681 405 681H459C467.284 681 474 674.284 474 666V612C474 603.716 467.284 597 459 597Z" fill="#0F172A" fill-opacity="0.1"/>
<path d="M459 596.5H405C396.44 596.5 389.5 603.44 389.5 612V666C389.5 674.56 396.44 681.5 405 681.5H459C467.56 681.5 474.5 674.56 474.5 666V612C474.5 603.44 467.56 596.5 459 596.5Z" stroke="#0F172A" stroke-opacity="0.2"/>
<path d="M404.006 606C403.401 606 402.951 606.493 403.004 607.095L408.104 664.299C408.158 664.901 408.679 665.526 409.262 665.688L430.903 671.697C431.486 671.859 432.439 671.859 433.023 671.698L454.729 665.679C455.312 665.517 455.834 664.892 455.887 664.29L460.996 607.095C461.05 606.493 460.599 606 459.994 606H404.006ZM450.135 619.119C450.087 619.657 450.003 620.59 449.95 621.192L449.815 622.693C449.761 623.295 449.684 624.157 449.643 624.607C449.603 625.058 449.565 625.426 449.557 625.426C449.551 625.426 449.05 625.426 448.445 625.426H433.1C432.495 625.426 431.995 625.426 431.988 625.426C431.982 625.426 431.481 625.426 430.876 625.426H422.795C422.19 625.426 421.739 625.919 421.793 626.521L422.264 631.791C422.318 632.393 422.857 632.886 423.462 632.886H430.877C431.481 632.886 431.982 632.886 431.989 632.886C431.995 632.886 432.495 632.886 433.1 632.886H445.845C446.45 632.886 447.386 632.886 447.925 632.886C448.464 632.886 448.865 633.326 448.816 633.863C448.767 634.401 448.684 635.334 448.63 635.936L447.114 652.924C447.06 653.527 446.992 654.296 446.962 654.635C446.932 654.973 446.431 655.382 445.848 655.543L433.06 659.089C432.477 659.251 431.993 659.384 431.984 659.386C431.975 659.388 431.491 659.257 430.907 659.096L418.106 655.544C417.523 655.382 417.002 654.757 416.949 654.154L416.125 644.905C416.071 644.303 416.522 643.81 417.127 643.81H418.295C418.9 643.81 419.89 643.81 420.495 643.81H422.237C422.842 643.81 423.381 644.303 423.435 644.905L423.758 648.526C423.812 649.128 424.333 649.75 424.918 649.908L430.905 651.525C431.489 651.683 431.969 651.812 431.972 651.812C431.974 651.812 432.454 651.682 433.038 651.525L439.037 649.904C439.621 649.746 440.143 649.124 440.197 648.522L440.847 641.268C440.901 640.665 440.451 640.172 439.846 640.172H433.1C432.495 640.172 431.995 640.172 431.989 640.172C431.982 640.172 431.481 640.172 430.877 640.172H416.801C416.196 640.172 415.657 639.679 415.603 639.077L414.007 621.192C413.954 620.589 413.87 619.657 413.822 619.119C413.774 618.582 414.23 618.142 414.835 618.142H430.877C431.481 618.142 431.982 618.142 431.989 618.142C431.995 618.142 432.495 618.142 433.1 618.142H449.122C449.727 618.142 450.183 618.582 450.135 619.119Z" fill="#0F172A"/>
</g>
<path d="M204.735 111L195.668 102L225.001 72.667H243.068L204.735 111ZM225.001 131.334L209.201 115.534L225.001 99.7337H243.068L227.268 115.534L243.068 131.334H225.001Z" fill="black"/>
<path d="M246.5 60.5H194.5C185.663 60.5 178.5 67.6634 178.5 76.5V128.5C178.5 137.337 185.663 144.5 194.5 144.5H246.5C255.337 144.5 262.5 137.337 262.5 128.5V76.5C262.5 67.6634 255.337 60.5 246.5 60.5Z" fill="#0F172A" fill-opacity="0.1"/>
<path d="M246.5 60H194.5C185.387 60 178 67.3873 178 76.5V128.5C178 137.613 185.387 145 194.5 145H246.5C255.613 145 263 137.613 263 128.5V76.5C263 67.3873 255.613 60 246.5 60Z" stroke="#0F172A" stroke-opacity="0.2"/>
<path d="M476.64 252.28C474.4 249.614 472.453 246.947 472.08 246.36H472C471.626 246.92 469.68 249.614 467.44 252.28C448.24 276.787 470.48 293.32 470.48 293.32L470.666 293.454C470.826 295.987 471.253 299.667 471.253 299.667H472.906C472.906 299.667 473.306 296.014 473.466 293.454L473.653 293.294C473.653 293.294 495.84 276.787 476.64 252.28ZM472 292.947C471.532 292.563 471.104 292.134 470.72 291.667L472 265L473.2 291.667C472.84 292.13 472.438 292.558 472 292.947Z" fill="#0F172A" fill-opacity="0.75"/>
<g clip-path="url(#clip1_503_157)">
<path d="M201 315C201 300.782 222.334 300.782 222.334 315C222.334 329.218 201 329.218 201 315ZM179.666 336.334C179.665 334.933 179.941 333.546 180.476 332.251C181.012 330.957 181.798 329.781 182.788 328.79C183.779 327.8 184.955 327.014 186.249 326.478C187.544 325.943 188.931 325.667 190.332 325.668H200.998V336.334C200.998 350.552 179.664 350.552 179.664 336.334H179.666ZM201 283V304.334H211.666C225.884 304.334 225.884 283 211.666 283H201ZM179.666 293.666C179.665 295.067 179.941 296.454 180.476 297.749C181.012 299.043 181.798 300.219 182.788 301.21C183.779 302.2 184.955 302.986 186.249 303.522C187.544 304.057 188.931 304.333 190.332 304.332H200.998V282.998H190.332C188.931 282.997 187.544 283.273 186.249 283.808C184.955 284.344 183.779 285.13 182.788 286.12C181.798 287.111 181.012 288.287 180.476 289.581C179.941 290.876 179.665 292.263 179.666 293.664V293.666ZM179.666 315C179.665 316.401 179.941 317.788 180.476 319.083C181.012 320.377 181.798 321.553 182.788 322.544C183.779 323.534 184.955 324.32 186.249 324.856C187.544 325.391 188.931 325.669 190.332 325.668H200.998V304.332H190.332C188.931 304.331 187.544 304.607 186.249 305.142C184.955 305.678 183.779 306.464 182.788 307.454C181.798 308.445 181.012 309.621 180.476 310.915C179.941 312.21 179.665 313.597 179.666 314.998V315Z" fill="black" fill-opacity="0.68"/>
</g>
</g>
<defs>
<radialGradient id="paint0_radial_503_157" cx="0" cy="0" r="1" gradientUnits="userSpaceOnUse" gradientTransform="translate(354 355) rotate(90) scale(372.936)">
<stop stop-color="white"/>
<stop offset="1" stop-color="white" stop-opacity="0"/>
</radialGradient>
<linearGradient id="paint1_linear_503_157" x1="197" y1="-87" x2="433" y2="746" gradientUnits="userSpaceOnUse">
<stop offset="0.416946"/>
<stop offset="0.880782" stop-opacity="0.02"/>
</linearGradient>
<linearGradient id="paint2_linear_503_157" x1="199.751" y1="469.579" x2="226.438" y2="505.823" gradientUnits="userSpaceOnUse">
<stop stop-color="#0F172A" stop-opacity="0"/>
<stop offset="1" stop-color="#0F172A"/>
</linearGradient>
<linearGradient id="paint3_linear_503_157" x1="228.841" y1="461.176" x2="234.331" y2="498.837" gradientUnits="userSpaceOnUse">
<stop offset="0.0001" stop-color="#0F172A"/>
</linearGradient>
<clipPath id="clip0_503_157">
<rect width="708" height="709" fill="white"/>
</clipPath>
<clipPath id="clip1_503_157">
<rect width="64" height="64" fill="white" transform="translate(169 283)"/>
</clipPath>
</defs>
</svg>
